<svg xmlns="http://www.w3.org/2000/svg" viewBox="0 0 500 500" width="500" height="500" role="img" aria-label="B logo">
  <defs>
    <linearGradient id="bgGrad" x1="0%" y1="0%" x2="100%" y2="100%">
      <stop offset="0%" style="stop-color:#4f46e5;stop-opacity:1" />
      <stop offset="100%" style="stop-color:#7c3aed;stop-opacity:1" />
    </linearGradient>
    <linearGradient id="shineGrad" x1="0%" y1="0%" x2="0%" y2="100%">
      <stop offset="0%" style="stop-color:#ffffff;stop-opacity:0.18" />
      <stop offset="100%" style="stop-color:#ffffff;stop-opacity:0" />
    </linearGradient>
    <filter id="shadow" x="-20%" y="-20%" width="140%" height="140%">
      <feDropShadow dx="0" dy="8" stdDeviation="16" flood-color="#4f46e5" flood-opacity="0.45"/>
    </filter>
    <filter id="glow" x="-10%" y="-10%" width="120%" height="120%">
      <feGaussianBlur stdDeviation="3" result="blur"/>
      <feComposite in="SourceGraphic" in2="blur" operator="over"/>
    </filter>
    <clipPath id="roundedClip">
      <rect x="0" y="0" width="500" height="500" rx="100" ry="100"/>
    </clipPath>
  </defs>

  <!-- Drop shadow layer -->
  <rect x="0" y="0" width="500" height="500" rx="100" ry="100"
        fill="url(#bgGrad)" filter="url(#shadow)" opacity="0.6"/>

  <!-- Main background -->
  <rect x="0" y="0" width="500" height="500" rx="100" ry="100"
        fill="url(#bgGrad)"/>

  <!-- Subtle shine overlay -->
  <rect x="0" y="0" width="500" height="500" rx="100" ry="100"
        fill="url(#shineGrad)"/>

  <!-- Letter B glyph from HP0014HB font, scaled and centered -->
  <g transform="translate(80.8, 70) scale(0.17358)" fill="#ffffff" filter="url(#glow)">
    <path d="M1781.70 1061L1781.70 1061Q1948.70 1230 1948.70 1471L1948.70 1471Q1948.70 1626 1900.70 1746L1900.70 1746Q1857.70 1857 1773.70 1934L1773.70 1934Q1623.70 2074 1390.70 2074L1390.70 2074L1390.70 2074Q1390.70 2074 1389.70 2074Q1388.70 2074 1387.70 2074L1387.70 2074Q1387.70 2074 1387.20 2074Q1386.70 2074 1385.70 2074L1385.70 2074L1385.70 2074Q1261.70 2074 1177.70 1997L1177.70 1997Q1099.70 1925 1088.70 1815L1088.70 1815Q1078.70 1686 1167.70 1580L1167.70 1580Q1265.70 1466 1453.70 1430L1453.70 1430L1464.70 1490Q1289.70 1522 1215.20 1618Q1140.70 1714 1149.70 1810L1149.70 1810Q1157.70 1897 1218.70 1953L1218.70 1953Q1284.70 2014 1388.70 2014L1388.70 2014Q1532.70 2013 1652.70 1882Q1772.70 1751 1772.70 1471L1772.70 1471Q1772.70 1231 1617.70 1076L1617.70 1076Q1542.70 1000 1424.70 945L1424.70 945Q1261.70 1007 1019.70 1008L1019.70 1008Q1015.70 1008 1011.20 1008Q1006.70 1008 1001.70 1008L1001.70 1008L1001.70 1008Q1001.70 1008 1001.70 1008Q1001.70 1008 1001.70 1008L1001.70 1008Q1001.70 1008 1001.20 1008Q1000.70 1008 1000.70 1008L1000.70 1008L1000.70 1008Q918.70 1008 871.70 960L871.70 960Q848.70 937 848.70 906L848.70 906Q848.70 889 861.20 862Q873.70 835 918.70 818L918.70 818Q959.70 802 1016.70 802L1016.70 802L1016.70 802Q1016.70 802 1016.70 802Q1016.70 802 1016.70 802L1016.70 802Q1215.70 802 1397.70 853L1397.70 853Q1427.70 834 1451.70 808L1451.70 808Q1561.70 700 1561.70 506L1561.70 506Q1561.70 265 1363.20 167.50Q1164.70 70 953.70 70L953.70 70Q707.70 70 524.70 166L524.70 166Q312.70 278 260.70 488L260.70 488Q228.70 623 299.70 714L299.70 714Q366.70 798 477.70 798L477.70 798Q614.70 798 713.70 683L713.70 683Q810.70 572 814.70 415L814.70 415L875.70 417Q871.70 593 759.70 723L759.70 723Q642.70 859 477.70 859L477.70 859Q337.70 859 251.70 751L251.70 751Q162.70 639 201.70 474L201.70 474Q232.70 351 311.70 257L311.70 257Q387.70 170 495.70 113L495.70 113Q694.70 9 953.70 9L953.70 9Q953.70 9 953.70 9Q953.70 9 953.70 9L953.70 9Q953.70 9 953.70 9Q953.70 9 953.70 9L953.70 9Q1254.70 9 1467.70 115L1467.70 115Q1736.70 250 1736.70 506L1736.70 506Q1736.70 706 1612.70 828L1612.70 828Q1577.70 865 1525.70 896L1525.70 896Q1682.70 962 1781.70 1061ZM1016.70 947Q1082.70 947 1157.70 937.50Q1232.70 928 1301.70 901L1301.70 901Q1166.70 863 1016.70 863L1016.70 863Q1016.70 863 1016.70 863Q1016.70 863 1016.70 863L1016.70 863Q1003.70 863 957.20 869.50Q910.70 876 909.70 908L909.70 908Q909.70 912 914.70 918L914.70 918Q942.70 946 1001.70 948L1001.70 948Q1011.70 948 1016.70 947L1016.70 947ZM1459.70 0L1459.70 0L1485.70 54Q1353.70 127 1264.70 252L1264.70 252Q1168.70 392 1140.70 578L1140.70 578Q1123.70 698 1121.20 818Q1118.70 938 1118.70 1046L1118.70 1046L1119.70 1093Q1120.70 1200 1118.70 1301Q1116.70 1402 1101.70 1498L1101.70 1498Q1067.70 1719 944.70 1869L944.70 1869Q873.70 1956 778.70 2006L778.70 2006Q672.70 2062 548.70 2066L548.70 2066Q548.70 2066 548.70 2066Q548.70 2066 548.70 2066L548.70 2066L548.70 2066Q548.70 2066 548.70 2066Q548.70 2066 548.70 2066L548.70 2066L548.70 2066Q326.70 2076 173.70 1969L173.70 1969Q17.70 1860 1.70 1674L1.70 1674Q-12.30 1493 88.70 1368L88.70 1368Q191.70 1241 355.70 1242L355.70 1242Q519.70 1244 606.70 1345L606.70 1345Q699.70 1453 689.70 1656L689.70 1656L628.70 1653Q638.70 1474 560.70 1384L560.70 1384Q492.70 1305 354.70 1303L354.70 1303Q221.70 1300 135.70 1406L135.70 1406Q49.70 1513 61.70 1669L61.70 1669Q75.70 1827 208.70 1920L208.70 1920Q344.70 2016 545.70 2006L545.70 2006Q712.70 1997 815.70 1833L815.70 1833Q906.70 1695 930.70 1490L930.70 1490Q942.70 1395 943.70 1292.50Q944.70 1190 944.70 1082L944.70 1082L943.70 1046Q943.70 935 947.20 812.50Q950.70 690 972.70 568L972.70 568Q1012.70 366 1148.70 214L1148.70 214Q1272.70 78 1459.70 0Z"/>
  </g>
</svg>
